<svg xmlns="http://www.w3.org/2000/svg" data-name="Layer 1" width="274" height="203.64" style=""><rect id="backgroundrect" width="100%" height="100%" x="0" y="0" fill="none" stroke="none"/><defs><style>.cls-1{opacity:0.4;}.cls-2{fill:#00bfd6;}.cls-3,.cls-4{fill:#fff;}.cls-4,.cls-5,.cls-6{stroke:#000;}.cls-4,.cls-5,.cls-6,.cls-7{stroke-linecap:round;stroke-linejoin:round;}.cls-5{fill:#f2f2f2;}.cls-6,.cls-7{fill:none;}.cls-7{stroke:#ff637d;}.cls-8{fill:#77787b;}.cls-9{fill:#ef5662;}</style></defs><title>Artboard 5 copy 6</title><g class="currentLayer" style=""><title>Layer 1</title><g class="cls-1" id="svg_1"><path class="cls-2" d="M204.6,166.67c-47.76,45.59-85.4,43.38-133.17-2.21-45.59-43.52-48-84-2.42-127.55,47.76-45.59,73.71-25,133.47,3.11C264.36,69.1,250.19,123.15,204.6,166.67Z" id="svg_2"/></g><path class="cls-3" d="M97.49,47.6h91.42a0,0,0,0,1,0,0V166.33a0,0,0,0,1,0,0H107.05a9.56,9.56,0,0,1-9.56-9.56V47.6A0,0,0,0,1,97.49,47.6Z" id="svg_3"/><path class="cls-4" d="M87.49,40.38h92.19a15,15,0,0,1,15,15V166.33" id="svg_4"/><path class="cls-5" d="M97.49,156.49V65l-.17-14.78a9.83,9.83,0,1,0-19.67,0H97.32" id="svg_5"/><path class="cls-5" d="M107.32,166.33a9.83,9.83,0,0,0,9.83-9.83h91.36a9.83,9.83,0,0,1-9.83,9.83H107.32" id="svg_6"/><path class="cls-6" d="M97.49,156.49a9.83,9.83,0,0,0,9.83,9.83" id="svg_7"/><rect class="cls-4" x="166.41000366210938" y="84.5999984741211" width="13" height="13" id="svg_8"/><rect class="cls-4" x="166.41000366210938" y="106.4800033569336" width="13" height="13" id="svg_9"/><rect class="cls-4" x="166.41000366210938" y="128.35000610351562" width="13" height="13" id="svg_10"/><line class="cls-6" x1="159.66000366210938" y1="91.0999984741211" x2="119.16000366210938" y2="91.0999984741211" id="svg_11"/><line class="cls-6" x1="159.66000366210938" y1="113.05999755859375" x2="119.16000366210938" y2="113.05999755859375" id="svg_12"/><line class="cls-6" x1="159.66000366210938" y1="135.02000427246094" x2="119.16000366210938" y2="135.02000427246094" id="svg_13"/><line class="cls-7" x1="169.05999755859375" y1="87.26000213623047" x2="176.75" y2="94.94000244140625" id="svg_14"/><line class="cls-7" x1="176.75" y1="87.26000213623047" x2="169.05999755859375" y2="94.94000244140625" id="svg_15"/><line class="cls-7" x1="169.05999755859375" y1="109.12999725341797" x2="176.75" y2="116.81999969482422" id="svg_16"/><line class="cls-7" x1="176.75" y1="109.12999725341797" x2="169.05999755859375" y2="116.81999969482422" id="svg_17"/><line class="cls-7" x1="169.05999755859375" y1="131.00999450683594" x2="176.75" y2="138.6999969482422" id="svg_18"/><line class="cls-7" x1="176.75" y1="131.00999450683594" x2="169.05999755859375" y2="138.6999969482422" id="svg_19"/></g></svg>