<svg xmlns="http://www.w3.org/2000/svg" width="208" height="191" style=""><rect id="backgroundrect" width="100%" height="100%" x="0" y="0" fill="none" stroke="none"/>
    
<g class="currentLayer" style=""><title>Layer 1</title><g fill="none" fill-rule="evenodd" id="svg_1" class="selected">
        <path fill="#00BFD6" fill-rule="nonzero" d="M168.6 157.43c-47.76 45.59-85.4 43.38-133.17-2.21-45.59-43.52-48-84-2.42-127.55 47.76-45.59 73.71-25 133.47 3.11 61.88 29.08 47.71 83.13 2.12 126.65z" opacity=".4" id="svg_2"/>
        <path fill="#FFF" fill-rule="nonzero" stroke="#000" stroke-linecap="round" stroke-linejoin="round" d="M108.21 155.99l52.88-30.96V64.4l-52.88-30.52" id="svg_3"/>
        <path fill="#CAC8C8" fill-rule="nonzero" stroke="#000" stroke-linecap="round" stroke-linejoin="round" d="M108.21 33.88L55.33 64.4v58.68a4.12 4.12 0 0 0 2.06 3.57L108.21 156" id="svg_4"/>
        <path stroke="#000" stroke-linecap="round" stroke-linejoin="round" d="M159.71 65.17l-51.5 29.74-51.5-29.74M108.21 94.93v61.06M108.21 92.77v14.44" id="svg_5"/>
        <path fill="#77787B" fill-rule="nonzero" d="M133.11 108.28c2.45-1.41 4.41-.27 4.41 2.57v8.24a9.47 9.47 0 0 1-4.38 7.59l-8.08 4.67v-4l7.09-4.09A4.42 4.42 0 0 0 134 120v-6.24c0-1-.85-1.42-1.86-.83L125 117v-4.06l8.11-4.66z" id="svg_6"/>
        <path fill="#EF5662" fill-rule="nonzero" d="M148.73 99.26l-6.61 13.03 6.66 5.37-4.58 2.65-6.66-5.37 6.61-13.03z" id="svg_7"/>
        <path fill="#CAC8C8" fill-rule="nonzero" stroke="#000" stroke-linecap="round" stroke-linejoin="round" d="M50.53 61.21v13.47l57.68 33.07V81.89z" id="svg_8"/>
        <path fill="#FFF" fill-rule="nonzero" stroke="#000" stroke-linecap="round" stroke-linejoin="round" d="M165.89 61.21v13.47l-57.68 33.07V87.38l50.82-27.47z" id="svg_9"/>
        <path fill="#F2F2F2" fill-rule="nonzero" stroke="#000" stroke-linecap="round" stroke-linejoin="round" d="M165.89 60.86l-57.68 33.07-57.68-33.07L106.16 29a4.12 4.12 0 0 1 4.1 0l55.63 31.86z" id="svg_10"/>
        <path fill="#FFF" fill-rule="nonzero" stroke="#000" stroke-linecap="round" stroke-linejoin="round" d="M76.46 139.62l39.83 2.55a7.48 7.48 0 1 0 0-14.96h-.85a59.28 59.28 0 0 1-32.88-10 33.58 33.58 0 0 0-18.63-5.64h-16.4l.7 35.78 44 14.73a20.77 20.77 0 0 0 14.52-.5l61.31-25.35a7.22 7.22 0 0 0 3.79-9.71 7.22 7.22 0 0 0-9.24-3.67L122.54 139" id="svg_11"/>
        <rect width="14.079999923706055" height="44.560001373291016" x="34.13999938964844" y="107.0199966430664" fill="#F2F2F2" fill-rule="nonzero" stroke="#000" stroke-linecap="round" stroke-linejoin="round" rx="5.53000020980835" id="svg_12"/>
        <circle cx="41.45000076293945" cy="142.64999389648438" r="2.5" fill="#CCC" fill-rule="nonzero" stroke="#000" id="svg_13"/>
    </g><polyline fill="#ffffff" stroke="#ffffff" stroke-width="6" stroke-dashoffset="" fill-rule="evenodd" marker-start="" marker-mid="" marker-end="" id="svg_14" points="139.42871812081214,111.8636290902447 137.6105364077184,111.25756851921346 137.6105364077184,110.6515079481822 137.6105364077184,110.6515079481822 137.00447583668713,110.6515079481822 136.39841526565587,110.04544737715096 135.79235469462466,110.04544737715096 135.1862941235934,110.04544737715096 134.58023355256213,110.04544737715096 133.97417298153093,110.04544737715096 133.36811241049966,110.04544737715096 132.7620518394684,110.04544737715096 132.15599126843713,110.04544737715096 131.54993069740593,110.04544737715096 131.54993069740593,110.04544737715096 130.94387012637466,110.04544737715096 130.94387012637466,110.04544737715096 130.94387012637466,110.6515079481822 130.94387012637466,111.25756851921346 130.94387012637466,112.46968966127594 130.94387012637466,112.46968966127594 130.94387012637466,113.0757502323072 130.94387012637466,113.68181080333844 130.94387012637466,114.2878713743697 130.94387012637466,114.89393194540094 130.94387012637466,114.2878713743697 129.73174898431213,113.0757502323072 128.51962784224966,112.46968966127594 127.9135672712184,112.46968966127594 127.30750670018719,111.8636290902447 126.70144612915593,111.8636290902447 125.4893249870934,110.6515079481822 125.4893249870934,110.04544737715096 124.88326441606219,110.04544737715096 124.88326441606219,110.6515079481822 124.88326441606219,111.25756851921346 124.88326441606219,111.8636290902447 124.88326441606219,112.46968966127594 124.88326441606219,113.0757502323072 125.4893249870934,113.0757502323072 125.4893249870934,113.68181080333844 125.4893249870934,114.89393194540094 125.4893249870934,115.4999925164322 126.09538555812466,115.4999925164322 126.70144612915593,115.4999925164322 127.30750670018719,115.4999925164322 127.9135672712184,115.4999925164322 128.51962784224966,115.4999925164322 129.12568841328093,115.4999925164322 129.73174898431213,115.4999925164322 130.3378095553434,115.4999925164322 130.94387012637466,114.89393194540094 131.54993069740593,114.2878713743697 131.54993069740593,113.68181080333844 131.54993069740593,113.0757502323072 131.54993069740593,112.46968966127594 " style="color: rgb(242, 244, 247);"/><polyline fill="#ffffff" stroke="#ffffff" stroke-width="6" stroke-dashoffset="" fill-rule="evenodd" marker-start="" marker-mid="" marker-end="" id="svg_15" points="141.24689983390587,104.59090223786973 141.24689983390587,104.59090223786973 " style="color: rgb(242, 244, 247);"/><polyline fill="none" stroke="#ffffff" stroke-width="9" stroke-dashoffset="" fill-rule="evenodd" marker-start="" marker-mid="" marker-end="" id="svg_16" points="146.70144497318714,118.53029537158842 146.70144497318714,118.53029537158842 146.09538440215587,118.53029537158842 145.4893238311246,118.53029537158842 144.88326326009334,118.53029537158842 144.88326326009334,118.53029537158842 144.27720268906214,117.92423480055717 144.27720268906214,117.31817422952594 143.67114211803087,116.71211365849469 143.67114211803087,116.71211365849469 143.67114211803087,116.10605308746344 143.67114211803087,115.4999925164322 142.4590209759684,114.89393194540094 142.4590209759684,114.2878713743697 142.4590209759684,113.68181080333844 141.85296040493714,113.0757502323072 140.6408392628746,112.46968966127594 140.0347786918434,111.8636290902447 140.0347786918434,111.25756851921346 139.42871812081214,111.25756851921346 139.42871812081214,110.04544737715096 139.42871812081214,109.4393868061197 139.42871812081214,108.83332623508846 139.42871812081214,108.2272656640572 139.42871812081214,107.62120509302596 139.42871812081214,107.01514452199473 139.42871812081214,106.40908395096346 139.42871812081214,106.40908395096346 139.42871812081214,105.19696280890096 140.0347786918434,104.59090223786973 140.0347786918434,103.98484166683848 140.6408392628746,103.37878109580723 140.6408392628746,102.77272052477596 141.24689983390587,102.16665995374474 141.24689983390587,101.56059938271349 141.85296040493714,101.56059938271349 142.4590209759684,101.56059938271349 143.0650815469996,101.56059938271349 143.67114211803087,101.56059938271349 143.67114211803087,100.95453881168223 144.27720268906214,100.95453881168223 144.88326326009334,100.348478240651 146.09538440215587,100.348478240651 146.70144497318714,100.348478240651 147.30750554421834,100.348478240651 147.9135661152496,100.348478240651 148.51962668628087,100.348478240651 149.12568725731214,100.95453881168223 148.51962668628087,101.56059938271349 148.51962668628087,102.16665995374474 147.30750554421834,102.77272052477596 146.70144497318714,102.77272052477596 146.09538440215587,103.37878109580723 145.4893238311246,103.37878109580723 144.88326326009334,103.37878109580723 144.88326326009334,103.98484166683848 143.67114211803087,103.98484166683848 143.67114211803087,103.98484166683848 142.4590209759684,103.98484166683848 141.24689983390587,104.59090223786973 140.6408392628746,104.59090223786973 140.0347786918434,104.59090223786973 139.42871812081214,105.19696280890096 139.42871812081214,105.80302337993223 139.42871812081214,106.40908395096346 139.42871812081214,106.40908395096346 139.42871812081214,107.01514452199473 140.0347786918434,107.62120509302596 140.0347786918434,108.2272656640572 140.6408392628746,108.83332623508846 141.24689983390587,108.83332623508846 141.85296040493714,109.4393868061197 143.0650815469996,110.04544737715096 143.67114211803087,110.6515079481822 143.67114211803087,111.25756851921346 143.67114211803087,111.8636290902447 144.88326326009334,112.46968966127594 145.4893238311246,113.0757502323072 145.4893238311246,114.2878713743697 145.4893238311246,115.4999925164322 145.4893238311246,116.10605308746344 145.4893238311246,116.71211365849469 145.4893238311246,117.31817422952594 146.70144497318714,117.92423480055717 146.70144497318714,118.53029537158842 145.4893238311246,118.53029537158842 144.27720268906214,118.53029537158842 143.0650815469996,117.92423480055717 141.85296040493714,117.92423480055717 141.24689983390587,117.92423480055717 140.0347786918434,117.31817422952594 140.0347786918434,116.71211365849469 140.0347786918434,116.10605308746344 139.42871812081214,115.4999925164322 138.82265754978087,114.89393194540094 138.82265754978087,114.2878713743697 138.21659697874966,114.2878713743697 137.6105364077184,114.2878713743697 137.00447583668713,114.2878713743697 136.39841526565587,114.2878713743697 136.39841526565587,115.4999925164322 136.39841526565587,116.10605308746344 136.39841526565587,117.31817422952594 136.39841526565587,117.92423480055717 136.39841526565587,118.53029537158842 136.39841526565587,118.53029537158842 136.39841526565587,119.13635594261967 136.39841526565587,119.74241651365094 135.79235469462466,120.95453765571345 135.1862941235934,121.56059822674467 134.58023355256213,122.16665879777594 134.58023355256213,122.77271936880719 134.58023355256213,123.37877993983841 134.58023355256213,123.98484051086967 134.58023355256213,124.59090108190092 133.97417298153093,124.59090108190092 132.7620518394684,125.80302222396341 132.15599126843713,125.80302222396341 131.54993069740593,125.80302222396341 131.54993069740593,126.40908279499467 131.54993069740593,127.01514336602591 130.94387012637466,127.62120393705717 130.3378095553434,128.2272645080884 129.73174898431213,128.2272645080884 129.12568841328093,128.2272645080884 129.12568841328093,128.83332507911965 128.51962784224966,128.83332507911965 128.51962784224966,129.4393856501509 127.9135672712184,129.4393856501509 127.9135672712184,130.04544622118215 126.70144612915593,130.04544622118215 126.09538555812466,130.6515067922134 125.4893249870934,130.6515067922134 " style="color: rgb(242, 244, 247);"/></g></svg>