<svg xmlns="http://www.w3.org/2000/svg" data-name="Layer 1" width="274" height="203.63999938964844" style=""><rect id="backgroundrect" width="100%" height="100%" x="0" y="0" fill="none" stroke="none"/><defs><style>.cls-1{opacity:0.4;}.cls-2{fill:#00bfd6;}.cls-3,.cls-5{fill:#fff;}.cls-3,.cls-4,.cls-5,.cls-6{stroke:#000;}.cls-3,.cls-4,.cls-6{stroke-linecap:round;stroke-linejoin:round;}.cls-4{fill:none;}.cls-5{stroke-miterlimit:10;}.cls-6{fill:#e6e6e6;}.cls-7{fill:#ef5662;}.cls-8{fill:#77787b;}</style></defs><title>Artboard 5 copy 4</title><g class="currentLayer" style=""><title>Layer 1</title><g class="cls-1" id="svg_1"><path class="cls-2" d="M204.11,166.67c-47.76,45.59-85.4,43.38-133.17-2.21-45.59-43.52-48-84-2.42-127.55C116.29-8.68,142.23,11.95,202,40,263.88,69.1,249.71,123.15,204.11,166.67Z" id="svg_2"/></g><path class="cls-3" d="M124.66,97.71,115.4,62.63A5,5,0,0,1,119,56.52l30.24-8a5,5,0,0,1,6.11,3.56l9.26,35.07" id="svg_3"/><path class="cls-3" d="M106.43999954223634,134.01999877929688 h58.92 a5,5 0 0 1 5,5 v58.92 a0,0 0 0 1 0,0 H106.43999954223634 a0,0 0 0 1 0,0 V134.01999877929688 A0,0 0 0 1 106.43999954223634,134.01999877929688 z" transform="rotate(-14.789999961853027 -25.27000045776367,45.779998779296875) " id="svg_4"/><rect class="cls-4" x="117.05999755859375" y="144.63999938964844" width="42.66999816894531" height="42.66999816894531" rx="5" ry="5" transform="rotate(-14.789999961853027 -25.27000045776367,45.779998779296875) " id="svg_5"/><rect class="cls-5" x="115.33999633789062" y="37.279998779296875" width="10.430000305175781" height="130.00999450683594" rx="5.21999979019165" ry="5.21999979019165" transform="matrix(0.97,-0.26,0.26,0.97,-22.12,34.17) " id="svg_6"/><rect class="cls-5" x="460.6199951171875" y="44.099998474121094" width="10.680000305175781" height="96.72000122070312" rx="5.340000152587891" ry="5.340000152587891" transform="rotate(75.20999908447266 284.1000061035156,-61.3199996948242) " id="svg_7"/><rect class="cls-5" x="189.489990234375" y="-30.350000381469727" width="10.430000305175781" height="37.209999084472656" rx="5.21999979019165" ry="5.21999979019165" transform="rotate(75.20999908447266 106.47000122070311,-53.90999984741211) " id="svg_8"/><circle class="cls-5" cx="97.43000030517578" cy="66.0199966430664" r="8.600000381469727" transform="rotate(-14.789999961853027 -6.329999923706043,27.760000228881836) " id="svg_9"/><circle class="cls-3" cx="99.52999877929688" cy="205.6300048828125" r="16.559999465942383" transform="rotate(-14.789999961853027 -37.61999893188474,40.50000000000001) " id="svg_10"/><circle class="cls-6 selected" cx="136.26469039916992" cy="164.81367874145508" r="7.019999980926514" id="svg_11"/><path class="cls-6" d="M118.26999988555909,89.14999908447265 h14 a0,0 0 0 1 0,0 V107.41999908447265 a2,2 0 0 1 -2,2 h-10 a2,2 0 0 1 -2,-2 V89.14999908447265 a0,0 0 0 1 0,0 z" transform="rotate(-14.789999961853027 -11.380000114440852,36.95999908447266) " id="svg_14"/></g></svg>